<mxfile host="app.diagrams.net" modified="2023-07-05T08:26:43.050Z" agent="Mozilla/5.0 (Windows NT 10.0; Win64; x64) AppleWebKit/537.36 (KHTML, like Gecko) Chrome/114.0.0.0 Safari/537.36" version="21.5.2" etag="mSSF1l6xrP6y3By-6X1n" type="github">
  <diagram name="第 1 页" id="bDntbR2JtBhcT2g4Mgpl">
    <mxGraphModel>
      <root>
        <mxCell id="0" />
        <mxCell id="1" parent="0" />
      </root>
    </mxGraphModel>
  </diagram>
</mxfile>
